# Rhino

g Ground
o object_1
v -2.5 -17.875 0
v -32.5 -17.875 0
v 27.5 -22.875 0
v 7.5 -22.875 0
v 62.5 -12.875 0
v 52.5 -12.875 0
v 67.5 17.125 0
v 67.5 -7.875 0
v 37.5 22.125 0
v 62.5 22.125 0
v 37.5 27.125 0
v 27.5 27.125 0
v 27.5 17.125 0
v 12.5 17.125 0
v -17.5 22.125 0
v 7.5 22.125 0
v 72.5 28.625 0
v -17.5 28.625 0
v 72.5 -27.875 0
v -72.5 -27.875 0
v -32.5 28.625 0
v -72.5 28.625 0
v -52.5 22.125 0
v -32.5 22.125 0
v -62.5 17.125 0
v -57.5 17.125 0
v -67.5 -7.875 0
v -67.5 12.125 0
v -41.5 -12.875 0
v -62.5 -12.875 0
v -17.5 27.125 0
v -72.5 27.125 0
v -32.5 27.125 0
v -32.5 28.625 -1
v -72.5 28.625 -1
v -52.5 22.125 -1
v -32.5 22.125 -1
v -62.5 17.125 -1
v -57.5 17.125 -1
v -67.5 -7.875 -1
v -67.5 12.125 -1
v -41.5 -12.875 -1
v -62.5 -12.875 -1
v -2.5 -17.875 -1
v -32.5 -17.875 -1
v 27.5 -22.875 -1
v 7.5 -22.875 -1
v 62.5 -12.875 -1
v 52.5 -12.875 -1
v 67.5 17.125 -1
v 67.5 -7.875 -1
v 37.5 22.125 -1
v 62.5 22.125 -1
v 37.5 27.125 -1
v 27.5 27.125 -1
v 27.5 17.125 -1
v 12.5 17.125 -1
v -17.5 22.125 -1
v 7.5 22.125 -1
v 72.5 28.625 -1
v -17.5 28.625 -1
v 72.5 -27.875 -1
v -72.5 -27.875 -1
v -72.5 27.125 -1
v -32.5 27.125 -1
v -17.5 27.125 -1
v -2.5 -17.875 -1
v -2.5 -17.875 0
v -32.5 -17.875 -1
v -32.5 -17.875 0
v 7.5 -22.875 -1
v 7.5 -22.875 0
v -2.5 -17.875 -1
v -2.5 -17.875 0
v 27.5 -22.875 -1
v 27.5 -22.875 0
v 7.5 -22.875 -1
v 7.5 -22.875 0
v 52.5 -12.875 -1
v 52.5 -12.875 0
v 27.5 -22.875 -1
v 27.5 -22.875 0
v 62.5 -12.875 -1
v 62.5 -12.875 0
v 52.5 -12.875 -1
v 52.5 -12.875 0
v 67.5 -7.875 -1
v 67.5 -7.875 0
v 62.5 -12.875 -1
v 62.5 -12.875 0
v 67.5 17.125 -1
v 67.5 17.125 0
v 67.5 -7.875 -1
v 67.5 -7.875 0
v 62.5 22.125 -1
v 62.5 22.125 0
v 67.5 17.125 -1
v 67.5 17.125 0
v 37.5 22.125 -1
v 37.5 22.125 0
v 62.5 22.125 -1
v 62.5 22.125 0
v 37.5 27.125 -1
v 37.5 27.125 0
v 37.5 22.125 -1
v 37.5 22.125 0
v 27.5 27.125 -1
v 27.5 27.125 0
v 37.5 27.125 -1
v 37.5 27.125 0
v 27.5 17.125 -1
v 27.5 17.125 0
v 27.5 27.125 -1
v 27.5 27.125 0
v 12.5 17.125 -1
v 12.5 17.125 0
v 27.5 17.125 -1
v 27.5 17.125 0
v 7.5 22.125 -1
v 7.5 22.125 0
v 12.5 17.125 -1
v 12.5 17.125 0
v -17.5 22.125 -1
v -17.5 22.125 0
v 7.5 22.125 -1
v 7.5 22.125 0
v -17.5 27.125 -1
v -17.5 27.125 0
v -17.5 22.125 -1
v -17.5 22.125 0
v -17.5 28.625 -1
v -17.5 28.625 0
v -17.5 27.125 -1
v -17.5 27.125 0
v 72.5 28.625 -1
v 72.5 28.625 0
v -17.5 28.625 -1
v -17.5 28.625 0
v 72.5 -27.875 -1
v 72.5 -27.875 0
v 72.5 28.625 -1
v 72.5 28.625 0
v -72.5 -27.875 -1
v -72.5 -27.875 0
v 72.5 -27.875 -1
v 72.5 -27.875 0
v -72.5 27.125 -1
v -72.5 27.125 0
v -72.5 -27.875 -1
v -72.5 -27.875 0
v -72.5 28.625 -1
v -72.5 28.625 0
v -72.5 27.125 -1
v -72.5 27.125 0
v -32.5 28.625 -1
v -32.5 28.625 0
v -72.5 28.625 -1
v -72.5 28.625 0
v -32.5 27.125 -1
v -32.5 27.125 0
v -32.5 28.625 -1
v -32.5 28.625 0
v -32.5 22.125 -1
v -32.5 22.125 0
v -32.5 27.125 -1
v -32.5 27.125 0
v -52.5 22.125 -1
v -52.5 22.125 0
v -32.5 22.125 -1
v -32.5 22.125 0
v -57.5 17.125 -1
v -57.5 17.125 0
v -52.5 22.125 -1
v -52.5 22.125 0
v -62.5 17.125 -1
v -62.5 17.125 0
v -57.5 17.125 -1
v -57.5 17.125 0
v -67.5 12.125 -1
v -67.5 12.125 0
v -62.5 17.125 -1
v -62.5 17.125 0
v -67.5 -7.875 -1
v -67.5 -7.875 0
v -67.5 12.125 -1
v -67.5 12.125 0
v -62.5 -12.875 -1
v -62.5 -12.875 0
v -67.5 -7.875 -1
v -67.5 -7.875 0
v -41.5 -12.875 -1
v -41.5 -12.875 0
v -62.5 -12.875 -1
v -62.5 -12.875 0
v -32.5 -17.875 -1
v -32.5 -17.875 0
v -41.5 -12.875 -1
v -41.5 -12.875 0
vt 0.9196624159812927 0.4823890328407288
vt 0.9196624159812927 0.2798464000225067
vt 0.9533419013023377 0.6849316358566284
vt 0.9533419013023377 0.5499032735824585
vt 0.885982871055603 0.9212313890457153
vt 0.885982871055603 0.8537171483039856
vt 0.6839056611061096 0.9549884796142578
vt 0.8523033261299133 0.9549884796142578
vt 0.6502261161804199 0.7524458765983582
vt 0.6502261161804199 0.9212313890457153
vt 0.6165465712547302 0.7524458765983582
vt 0.6165465712547302 0.6849316358566284
vt 0.6839056611061096 0.6849316358566284
vt 0.6839056611061096 0.583660364151001
vt 0.6502261161804199 0.3811177313327789
vt 0.6502261161804199 0.5499032735824585
vt 0.6064426898956299 0.9887455701828003
vt 0.6064426898956299 0.3811177313327789
vt 0.9870214462280273 0.9887455701828003
vt 0.9870214462280273 0.009789560921490192
vt 0.6064426898956299 0.2798464000225067
vt 0.6064426898956299 0.009789560921490192
vt 0.6502261161804199 0.144817978143692
vt 0.6502261161804199 0.2798464000225067
vt 0.6839056611061096 0.07730376720428467
vt 0.6839056611061096 0.1110608801245689
vt 0.8523033261299133 0.04354666545987129
vt 0.7175851464271545 0.04354666545987129
vt 0.885982871055603 0.2190836220979691
vt 0.885982871055603 0.07730376720428467
vt 0.6165465712547302 0.3811177313327789
vt 0.6165465712547302 0.009789560921490192
vt 0.6165465712547302 0.2798464000225067
vt 0.08494170010089874 0.2798464000225067
vt 0.08494170010089874 0.009789560921490192
vt 0.1287250816822052 0.144817978143692
vt 0.1287250816822052 0.2798464000225067
vt 0.1624046266078949 0.07730376720428467
vt 0.1624046266078949 0.1110608801245689
vt 0.3308022916316986 0.04354666545987129
vt 0.1960841566324234 0.04354666545987129
vt 0.3644818365573883 0.2190836220979691
vt 0.3644818365573883 0.07730376720428467
vt 0.398161381483078 0.4823890328407288
vt 0.398161381483078 0.2798464000225067
vt 0.4318408966064453 0.6849316358566284
vt 0.4318408966064453 0.5499032735824585
vt 0.3644818365573883 0.9212313890457153
vt 0.3644818365573883 0.8537171483039856
vt 0.1624046266078949 0.9549884796142578
vt 0.3308022916316986 0.9549884796142578
vt 0.1287250816822052 0.7524458765983582
vt 0.1287250816822052 0.9212313890457153
vt 0.09504555910825729 0.7524458765983582
vt 0.09504555910825729 0.6849316358566284
vt 0.1624046266078949 0.6849316358566284
vt 0.1624046266078949 0.583660364151001
vt 0.1287250816822052 0.3811177313327789
vt 0.1287250816822052 0.5499032735824585
vt 0.08494170010089874 0.9887455701828003
vt 0.08494170010089874 0.3811177313327789
vt 0.465520441532135 0.9887455701828003
vt 0.465520441532135 0.009789560921490192
vt 0.09504555910825729 0.009789560921490192
vt 0.09504555910825729 0.2798464000225067
vt 0.09504555910825729 0.3811177313327789
vt 0.5823529362678528 0
vt 0.5755916237831116 0
vt 0.5823529362678528 0.2028397619724274
vt 0.5755916237831116 0.2028397619724274
vt 0.03211629390716553 0.151741161942482
vt 0.02535497024655342 0.151741161942482
vt 0.03211629390716553 0.2273350656032562
vt 0.02535497024655342 0.2273350656032562
vt 0.548546314239502 0
vt 0.5417850017547607 0
vt 0.548546314239502 0.1352265030145645
vt 0.5417850017547607 0.1352265030145645
vt 0.04732927680015564 0
vt 0.04056795313954353 0
vt 0.04732927680015564 0.1820542514324188
vt 0.04056795313954353 0.1820542514324188
vt 0.589114248752594 0
vt 0.5823529362678528 0
vt 0.589114248752594 0.06761325150728226
vt 0.5823529362678528 0.06761325150728226
vt 0.5350236892700195 0
vt 0.5282623171806335 0
vt 0.5350236892700195 0.04780979081988335
vt 0.5282623171806335 0.04780979081988335
vt 0.4978363811969757 0
vt 0.4910750389099121 0
vt 0.4978363811969757 0.1690331250429153
vt 0.4910750389099121 0.1690331250429153
vt 0.01521298196166754 0.151741161942482
vt 0.008451656438410282 0.151741161942482
vt 0.01521298196166754 0.1995509415864945
vt 0.008451656438410282 0.1995509415864945
vt 0.4910750389099121 0
vt 0.4843137264251709 0
vt 0.4910750389099121 0.1690331250429153
vt 0.4843137264251709 0.1690331250429153
vt 0.06761325150728226 0
vt 0.06085192784667015 0
vt 0.06761325150728226 0.03380662575364113
vt 0.06085192784667015 0.03380662575364113
vt 0.5620689392089844 0
vt 0.5553076267242432 0
vt 0.5620689392089844 0.06761325150728226
vt 0.5553076267242432 0.06761325150728226
vt 0.5553076267242432 0
vt 0.548546314239502 0
vt 0.5553076267242432 0.06761325150728226
vt 0.548546314239502 0.06761325150728226
vt 0.5181203484535217 0
vt 0.5113590359687805 0
vt 0.5181203484535217 0.1014198809862137
vt 0.5113590359687805 0.1014198809862137
vt 0.006761325057595968 0.151741161942482
vt 0 0.151741161942482
vt 0.006761325057595968 0.1995509415864945
vt 0 0.1995509415864945
vt 0.5113590359687805 0
vt 0.5045977234840393 0
vt 0.5113590359687805 0.1690331250429153
vt 0.5045977234840393 0.1690331250429153
vt 0.6026369333267212 0
vt 0.59587562084198 0
vt 0.6026369333267212 0.03380662575364113
vt 0.59587562084198 0.03380662575364113
vt 0 0
vt 0 0.006761325057595968
vt 0.01014198828488588 0
vt 0.01014198828488588 0.006761325057595968
vt 0.04056795313954353 0
vt 0.03380662575364113 0
vt 0.04056795313954353 0.6085192561149597
vt 0.03380662575364113 0.6085192561149597
vt 0.5417850017547607 0
vt 0.5350236892700195 0
vt 0.5417850017547607 0.3820148706436157
vt 0.5350236892700195 0.3820148706436157
vt 0.08113590627908707 0
vt 0.07437457889318466 0
vt 0.08113590627908707 0.9803921580314636
vt 0.07437457889318466 0.9803921580314636
vt 0.5755916237831116 0
vt 0.5688303112983704 0
vt 0.5755916237831116 0.3718729019165039
vt 0.5688303112983704 0.3718729019165039
vt 0.5181203484535217 0.5
vt 0.5181203484535217 0.5067613124847412
vt 0.5267974734306335 0.5
vt 0.5267974734306335 0.5067613124847412
vt 0.5688303112983704 0
vt 0.5620689392089844 0
vt 0.5688303112983704 0.270453006029129
vt 0.5620689392089844 0.270453006029129
vt 0.5181203484535217 0
vt 0.5181203484535217 0.006761325057595968
vt 0.5267974734306335 0
vt 0.5267974734306335 0.006761325057595968
vt 0.59587562084198 0
vt 0.589114248752594 0
vt 0.59587562084198 0.03380662575364113
vt 0.589114248752594 0.03380662575364113
vt 0.4843137264251709 0
vt 0.4775524139404297 0
vt 0.4843137264251709 0.1352265030145645
vt 0.4775524139404297 0.1352265030145645
vt 0.06085192784667015 0
vt 0.05409060046076775 0
vt 0.06085192784667015 0.04780979081988335
vt 0.05409060046076775 0.04780979081988335
vt 0 0.075870580971241
vt 0 0.08263190090656281
vt 0.03234178200364113 0.075870580971241
vt 0.03234178200364113 0.08263190090656281
vt 0.05409060046076775 0
vt 0.04732927680015564 0
vt 0.05409060046076775 0.04780979081988335
vt 0.04732927680015564 0.04780979081988335
vt 0.4775524139404297 0
vt 0.4707910716533661 0
vt 0.4775524139404297 0.1352265030145645
vt 0.4707910716533661 0.1352265030145645
vt 0.07437457889318466 0
vt 0.06761325150728226 0
vt 0.07437457889318466 0.04780979081988335
vt 0.06761325150728226 0.04780979081988335
vt 0.5045977234840393 0
vt 0.4978363811969757 0
vt 0.5045977234840393 0.1419878304004669
vt 0.4978363811969757 0.1419878304004669
vt 0.02366463840007782 0.151741161942482
vt 0.01690331287682056 0.151741161942482
vt 0.02366463840007782 0.2213532626628876
vt 0.01690331287682056 0.2213532626628876
vn 0 0 1
vn 0 0 1
vn 0 0 1
vn 0 0 1
vn 0 0 1
vn 0 0 1
vn 0 0 1
vn 0 0 1
vn 0 0 1
vn 0 0 1
vn 0 0 1
vn 0 0 1
vn 0 0 1
vn 0 0 1
vn 0 0 1
vn 0 0 1
vn 0 0 1
vn 0 0 1
vn 0 0 1
vn 0 0 1
vn 0 0 1
vn 0 0 1
vn 0 0 1
vn 0 0 1
vn 0 0 1
vn 0 0 1
vn 0 0 1
vn 0 0 1
vn 0 0 1
vn 0 0 1
vn 0 0 1
vn 0 0 1
vn 0 0 1
vn 0 0 -1
vn 0 0 -1
vn 0 0 -1
vn 0 0 -1
vn 0 0 -1
vn 0 0 -1
vn 0 0 -1
vn 0 0 -1
vn 0 0 -1
vn 0 0 -1
vn 0 0 -1
vn 0 0 -1
vn 0 0 -1
vn 0 0 -1
vn 0 0 -1
vn 0 0 -1
vn 0 0 -1
vn 0 0 -1
vn 0 0 -1
vn 0 0 -1
vn 0 0 -1
vn 0 0 -1
vn 0 0 -1
vn 0 0 -1
vn 0 0 -1
vn 0 0 -1
vn 0 0 -1
vn 0 0 -1
vn 0 0 -1
vn 0 0 -1
vn 0 0 -1
vn 0 0 -1
vn 0 0 -1
vn 0 1 0
vn 0 1 0
vn 0 1 0
vn 0 1 0
vn 0.4472135901451111 0.8944271802902222 0
vn 0.4472135901451111 0.8944271802902222 0
vn 0.4472135901451111 0.8944271802902222 0
vn 0.4472135901451111 0.8944271802902222 0
vn 0 1 0
vn 0 1 0
vn 0 1 0
vn 0 1 0
vn -0.3713906705379486 0.9284766912460327 0
vn -0.3713906705379486 0.9284766912460327 0
vn -0.3713906705379486 0.9284766912460327 0
vn -0.3713906705379486 0.9284766912460327 0
vn 0 1 0
vn 0 1 0
vn 0 1 0
vn 0 1 0
vn -0.7071067690849304 0.7071067690849304 0
vn -0.7071067690849304 0.7071067690849304 0
vn -0.7071067690849304 0.7071067690849304 0
vn -0.7071067690849304 0.7071067690849304 0
vn -1 0 0
vn -1 0 0
vn -1 0 0
vn -1 0 0
vn -0.7071067690849304 -0.7071067690849304 0
vn -0.7071067690849304 -0.7071067690849304 0
vn -0.7071067690849304 -0.7071067690849304 0
vn -0.7071067690849304 -0.7071067690849304 0
vn 0 -1 0
vn 0 -1 0
vn 0 -1 0
vn 0 -1 0
vn -1 0 0
vn -1 0 0
vn -1 0 0
vn -1 0 0
vn 0 -1 0
vn 0 -1 0
vn 0 -1 0
vn 0 -1 0
vn 1 0 0
vn 1 0 0
vn 1 0 0
vn 1 0 0
vn 0 -1 0
vn 0 -1 0
vn 0 -1 0
vn 0 -1 0
vn -0.7071067690849304 -0.7071067690849304 0
vn -0.7071067690849304 -0.7071067690849304 0
vn -0.7071067690849304 -0.7071067690849304 0
vn -0.7071067690849304 -0.7071067690849304 0
vn 0 -1 0
vn 0 -1 0
vn 0 -1 0
vn 0 -1 0
vn -1 0 0
vn -1 0 0
vn -1 0 0
vn -1 0 0
vn -1 8.881784197001252e-15 0
vn -1 8.881784197001252e-15 0
vn -1 8.881784197001252e-15 0
vn -1 8.881784197001252e-15 0
vn 0 1 0
vn 0 1 0
vn 0 1 0
vn 0 1 0
vn 1 0 0
vn 1 0 0
vn 1 0 0
vn 1 0 0
vn 0 -1 0
vn 0 -1 0
vn 0 -1 0
vn 0 -1 0
vn -1 0 0
vn -1 0 0
vn -1 0 0
vn -1 0 0
vn -1 0 0
vn -1 0 0
vn -1 0 0
vn -1 0 0
vn 0 1 0
vn 0 1 0
vn 0 1 0
vn 0 1 0
vn 1 2.131628207280301e-14 0
vn 1 2.131628207280301e-14 0
vn 1 2.131628207280301e-14 0
vn 1 2.131628207280301e-14 0
vn 1 0 0
vn 1 0 0
vn 1 0 0
vn 1 0 0
vn 0 -1 0
vn 0 -1 0
vn 0 -1 0
vn 0 -1 0
vn 0.7071067690849304 -0.7071067690849304 0
vn 0.7071067690849304 -0.7071067690849304 0
vn 0.7071067690849304 -0.7071067690849304 0
vn 0.7071067690849304 -0.7071067690849304 0
vn 0 -1 0
vn 0 -1 0
vn 0 -1 0
vn 0 -1 0
vn 0.7071067690849304 -0.7071067690849304 0
vn 0.7071067690849304 -0.7071067690849304 0
vn 0.7071067690849304 -0.7071067690849304 0
vn 0.7071067690849304 -0.7071067690849304 0
vn 1 0 0
vn 1 0 0
vn 1 0 0
vn 1 0 0
vn 0.7071067690849304 0.7071067690849304 0
vn 0.7071067690849304 0.7071067690849304 0
vn 0.7071067690849304 0.7071067690849304 0
vn 0.7071067690849304 0.7071067690849304 0
vn 0 1 0
vn 0 1 0
vn 0 1 0
vn 0 1 0
vn 0.4856429398059845 0.8741572499275208 0
vn 0.4856429398059845 0.8741572499275208 0
vn 0.4856429398059845 0.8741572499275208 0
vn 0.4856429398059845 0.8741572499275208 0
f 27/27/27 20/20/20 30/30/30
f 2/2/2 30/30/30 20/20/20
f 32/32/32 20/20/20 27/27/27 28/28/28
f 30/30/30 2/2/2 29/29/29
f 23/23/23 25/25/25 26/26/26
f 2/2/2 20/20/20 4/4/4
f 32/32/32 28/28/28 25/25/25
f 22/22/22 32/32/32 23/23/23
f 25/25/25 23/23/23 32/32/32
f 23/23/23 21/21/21 22/22/22
f 21/21/21 23/23/23 33/33/33
f 31/31/31 15/15/15 16/16/16
f 23/23/23 24/24/24 33/33/33
f 19/19/19 3/3/3 4/4/4
f 2/2/2 4/4/4 1/1/1
f 5/5/5 6/6/6 19/19/19
f 3/3/3 19/19/19 6/6/6
f 19/19/19 8/8/8 5/5/5
f 19/19/19 17/17/17 7/7/7 8/8/8
f 19/19/19 4/4/4 20/20/20
f 12/12/12 16/16/16 13/13/13
f 14/14/14 13/13/13 16/16/16
f 17/17/17 18/18/18 12/12/12 11/11/11
f 16/16/16 12/12/12 18/18/18
f 16/16/16 18/18/18 31/31/31
f 17/17/17 11/11/11 10/10/10
f 9/9/9 10/10/10 11/11/11
f 7/7/7 17/17/17 10/10/10
f 40/40/40 43/43/43 63/63/63
f 45/45/45 63/63/63 43/43/43
f 64/64/64 41/41/41 40/40/40 63/63/63
f 43/43/43 42/42/42 45/45/45
f 36/36/36 39/39/39 38/38/38
f 45/45/45 47/47/47 63/63/63
f 64/64/64 38/38/38 41/41/41
f 35/35/35 36/36/36 64/64/64
f 38/38/38 64/64/64 36/36/36
f 36/36/36 35/35/35 34/34/34
f 34/34/34 65/65/65 36/36/36
f 66/66/66 59/59/59 58/58/58
f 36/36/36 65/65/65 37/37/37
f 62/62/62 47/47/47 46/46/46
f 45/45/45 44/44/44 47/47/47
f 48/48/48 62/62/62 49/49/49
f 46/46/46 49/49/49 62/62/62
f 62/62/62 48/48/48 51/51/51
f 62/62/62 51/51/51 50/50/50 60/60/60
f 62/62/62 63/63/63 47/47/47
f 55/55/55 56/56/56 59/59/59
f 57/57/57 59/59/59 56/56/56
f 60/60/60 54/54/54 55/55/55 61/61/61
f 59/59/59 61/61/61 55/55/55
f 59/59/59 66/66/66 61/61/61
f 60/60/60 53/53/53 54/54/54
f 52/52/52 54/54/54 53/53/53
f 50/50/50 53/53/53 60/60/60
f 68/68/68 67/67/67 69/69/69 70/70/70
f 72/72/72 71/71/71 73/73/73 74/74/74
f 76/76/76 75/75/75 77/77/77 78/78/78
f 80/80/80 79/79/79 81/81/81 82/82/82
f 84/84/84 83/83/83 85/85/85 86/86/86
f 88/88/88 87/87/87 89/89/89 90/90/90
f 92/92/92 91/91/91 93/93/93 94/94/94
f 96/96/96 95/95/95 97/97/97 98/98/98
f 100/100/100 99/99/99 101/101/101 102/102/102
f 104/104/104 103/103/103 105/105/105 106/106/106
f 108/108/108 107/107/107 109/109/109 110/110/110
f 112/112/112 111/111/111 113/113/113 114/114/114
f 116/116/116 115/115/115 117/117/117 118/118/118
f 120/120/120 119/119/119 121/121/121 122/122/122
f 124/124/124 123/123/123 125/125/125 126/126/126
f 128/128/128 127/127/127 129/129/129 130/130/130
f 132/132/132 131/131/131 133/133/133 134/134/134
f 136/136/136 135/135/135 137/137/137 138/138/138
f 140/140/140 139/139/139 141/141/141 142/142/142
f 144/144/144 143/143/143 145/145/145 146/146/146
f 148/148/148 147/147/147 149/149/149 150/150/150
f 152/152/152 151/151/151 153/153/153 154/154/154
f 156/156/156 155/155/155 157/157/157 158/158/158
f 160/160/160 159/159/159 161/161/161 162/162/162
f 164/164/164 163/163/163 165/165/165 166/166/166
f 168/168/168 167/167/167 169/169/169 170/170/170
f 172/172/172 171/171/171 173/173/173 174/174/174
f 176/176/176 175/175/175 177/177/177 178/178/178
f 180/180/180 179/179/179 181/181/181 182/182/182
f 184/184/184 183/183/183 185/185/185 186/186/186
f 188/188/188 187/187/187 189/189/189 190/190/190
f 192/192/192 191/191/191 193/193/193 194/194/194
f 196/196/196 195/195/195 197/197/197 198/198/198
