# Rhino

o object_1
v 19 6.5 -1
v 19 6.5 0
v 19 5 -1
v 19 5 0
v 19 -5 -1
v 19 -5 0
v 19 5 -1
v 19 5 0
v 4 -5 -1
v 4 -5 0
v 19 -5 -1
v 19 -5 0
v -1 0 -1
v -1 0 0
v 4 -5 -1
v 4 -5 0
v -26 0 -1
v -26 0 0
v -1 0 -1
v -1 0 0
v -26 5 -1
v -26 5 0
v -26 0 -1
v -26 0 0
v -26 6.5 -1
v -26 6.5 0
v -26 5 -1
v -26 5 0
v 19 -5 0
v 19 5 0
v 19 6.5 0
v 4 -5 0
v -26 0 0
v -1 0 0
v -26 5 0
v -26 6.5 0
v 19 5 -1
v 19 6.5 -1
v 19 -5 -1
v 4 -5 -1
v -26 0 -1
v -1 0 -1
v -26 5 -1
v -26 6.5 -1
v 19 6.5 -1
v -26 6.5 -1
v -26 6.5 0
v 19 6.5 0
vt 0 0.4545454680919647
vt 0 0.4747474789619446
vt 0.02883818745613098 0.4545454680919647
vt 0.02883818745613098 0.4747474789619446
vt 0.09090909361839294 0.03350869566202164
vt 0.09090909361839294 0.05371071398258209
vt 0.2929292917251587 0.03350869566202164
vt 0.2929292917251587 0.05371071398258209
vt 0.09090909361839294 0.06701739132404327
vt 0.09090909361839294 0.08721940964460373
vt 0.3939394056797028 0.06701739132404327
vt 0.3939394056797028 0.08721940964460373
vt 0.06924222409725189 0
vt 0.05050504952669144 0
vt 0.06924222409725189 0.1428498476743698
vt 0.05050504952669144 0.1428498476743698
vt 0.09090909361839294 0
vt 0.09090909361839294 0.02020202018320561
vt 0.5959596037864685 0
vt 0.5959596037864685 0.02020202018320561
vt 0.04904020577669144 0
vt 0.03030303120613098 0
vt 0.04904020577669144 0.1010100990533829
vt 0.03030303120613098 0.1010100990533829
vt 0 0
vt 0 0.02020202018320561
vt 0.02883818745613098 0
vt 0.02883818745613098 0.02020202018320561
vt 0.99853515625 0.1005260869860649
vt 0.99853515625 0.3025462925434113
vt 0.99853515625 0.3328493237495422
vt 0.6959931254386902 0.1005260869860649
vt 0.09090909361839294 0.2015361934900284
vt 0.5951458215713501 0.2015361934900284
vt 0.09090909361839294 0.3025462925434113
vt 0.09090909361839294 0.3328493237495422
vt 0.99853515625 0.7068287134170532
vt 0.99853515625 0.7371317148208618
vt 0.99853515625 0.5048084855079651
vt 0.6959931254386902 0.5048084855079651
vt 0.09090909361839294 0.6058186292648315
vt 0.5951458215713501 0.6058186292648315
vt 0.09090909361839294 0.7068287134170532
vt 0.09090909361839294 0.7371317148208618
vt 0.08944424986839294 0
vt 0.08944424986839294 0.9076260924339294
vt 0.07070706784725189 0.9076260924339294
vt 0.07070706784725189 0
vn 1 0 0
vn 1 0 0
vn 1 0 0
vn 1 0 0
vn 1 0 0
vn 1 0 0
vn 1 0 0
vn 1 0 0
vn 0 -1 0
vn 0 -1 0
vn 0 -1 0
vn 0 -1 0
vn -0.7071067690849304 -0.7071067690849304 0
vn -0.7071067690849304 -0.7071067690849304 0
vn -0.7071067690849304 -0.7071067690849304 0
vn -0.7071067690849304 -0.7071067690849304 0
vn 0 -1 0
vn 0 -1 0
vn 0 -1 0
vn 0 -1 0
vn -1 0 0
vn -1 0 0
vn -1 0 0
vn -1 0 0
vn -1 7.105427357601002e-15 0
vn -1 7.105427357601002e-15 0
vn -1 7.105427357601002e-15 0
vn -1 7.105427357601002e-15 0
vn 0 0 1
vn 0 0 1
vn 0 0 1
vn 0 0 1
vn 0 0 1
vn 0 0 1
vn 0 0 1
vn 0 0 1
vn 0 0 -1
vn 0 0 -1
vn 0 0 -1
vn 0 0 -1
vn 0 0 -1
vn 0 0 -1
vn 0 0 -1
vn 0 0 -1
vn 0 1 0
vn 0 1 0
vn 0 1 0
vn 0 1 0
f 2/2/2 4/4/4 3/3/3 1/1/1
f 6/6/6 5/5/5 7/7/7 8/8/8
f 10/10/10 9/9/9 11/11/11 12/12/12
f 14/14/14 13/13/13 15/15/15 16/16/16
f 18/18/18 17/17/17 19/19/19 20/20/20
f 22/22/22 21/21/21 23/23/23 24/24/24
f 26/26/26 25/25/25 27/27/27 28/28/28
f 35/35/35 33/33/33 34/34/34
f 34/34/34 36/36/36 35/35/35
f 36/36/36 34/34/34 31/31/31
f 34/34/34 29/29/29 30/30/30
f 30/30/30 31/31/31 34/34/34
f 29/29/29 34/34/34 32/32/32
f 43/43/43 42/42/42 41/41/41
f 42/42/42 43/43/43 44/44/44
f 44/44/44 38/38/38 42/42/42
f 42/42/42 37/37/37 39/39/39
f 37/37/37 42/42/42 38/38/38
f 39/39/39 40/40/40 42/42/42
f 48/48/48 45/45/45 46/46/46 47/47/47
